<svg xmlns="http://www.w3.org/2000/svg" id="Layer_1" width="245.888" height="96.5" viewBox="0 0 245.888 96.5">
  <style>
    #rims1{ animation: rotate 0.5s linear infinite; transform-origin: 15% 77%; } #rims2{ animation: rotate 0.5s linear infinite; transform-origin: 78.5% 77%; } @keyframes rotate{ 100%{ transform: rotate(1turn); } }
  </style>
  <path fill="#363636" d="M242.663 65.376l-4.786 11.201h-10.773l4.362-11.201z"/>
  <path fill="#E61235" d="M101.896 4.161h12.842c4.146 0 18.644 1.515 25.785 5.085 7.142 3.571 34.512 18.822 36.247 19.802 1.735.978 4.136 2.056 6.721 2.056s22.384 1.84 37.099 7.033c14.716 5.192 15.473 7.573 18.611 12.118 3.137 4.544 2.164 4.566 3.57 6.015 1.408 1.45 1.408 1.883 1.408 3.615v5.248c0 .594.217 1.731-2.219 1.731s-4.979.066-6.275 1.115c-1.298 1.048-3.356 4.616-3.193 5.646.162 1.028 1.243 1.461 2.056 1.461h7.628c.432 0 .27 1.515-.216 2.056-.488.54-3.354 2.867-4.544 2.867H26.401c-4.789 0-5.136-3.946-7.073-3.946h-10.7c-2.056 0-4.869-3.411-5.843-5.793-.974-2.379-1.082-9.089-1.082-11.685 0-2.598 3.678-7.573 3.678-10.063V34.024c0-2.381 3.029-6.601 5.519-10.063 2.49-3.461 14.662-13.632 14.662-13.957 0-.323-1.137-2.133-.217-2.662.92-.53 38.031-3.181 76.551-3.181z"/>
  <path fill="#CC102F" d="M242.771 56.27c1.408 1.45 1.408 1.883 1.408 3.615v5.248c0 .594.217 1.731-2.219 1.731s-4.979.066-6.275 1.115c-1.298 1.048-3.356 4.616-3.193 5.646.162 1.028 1.243 1.461 2.056 1.461h7.628c.432 0 .27 1.515-.216 2.056-.488.54-3.354 2.867-4.544 2.867H26.401c-4.789 0-5.136-3.946-7.073-3.946h-10.7c-2.056 0-4.869-3.411-5.843-5.793-.974-2.379-1.082-9.089-1.082-11.685 0-1.576 1.353-4.027 2.418-6.269h236.418c1.521 2.535 1.082 2.768 2.232 3.954z"/>
  <path fill="#BDBDBD" d="M87.344 67.484V39.813c0-1.818.155-3.608.293-5.187.101-1.167.188-2.174.188-2.929h.487c0 .775-.088 1.794-.191 2.971-.136 1.569-.291 3.348-.291 5.145v27.671c0 4.892 6.281 7.71 8.277 7.71h65.082c1.365 0 1.623-.686 1.623-1.947V32.726c0-2.004-4.505-3.889-6.241-4.447l.149-.464c.269.087 6.58 2.144 6.58 4.911v40.521c0 1.204-.25 2.435-2.11 2.435H96.108c-2.182 0-8.764-2.909-8.764-8.198zm-61.13-22.72c2.999 0 5.438-2.439 5.438-5.438s-2.439-5.437-5.438-5.437c-2.998 0-5.437 2.438-5.437 5.437s2.439 5.438 5.437 5.438zm0-10.388a4.958 4.958 0 0 1 4.951 4.95c0 2.729-2.222 4.95-4.951 4.95s-4.949-2.221-4.949-4.95c0-2.728 2.22-4.95 4.949-4.95z"/>
  <g fill="#242424">
    <path d="M172.355 80.01v-5.705c0-11.615 9.451-21.066 21.066-21.066 11.615 0 21.065 9.451 21.065 21.066v5.705h-42.131z"/>
    <path d="M16.212 74.305c0-11.615 9.451-21.066 21.066-21.066 11.615 0 21.064 9.451 21.064 21.066v5.705H26.401c-4.789 0-5.136-3.946-7.073-3.946h-3.117v-1.759z"/>
  </g>
  <circle cx="193.422" cy="74.305" r="18.034" fill="#363636"/>
  <circle cx="193.421" cy="74.305" r="14.018" fill="#2E2E2E"/>
  <circle cx="193.421" cy="74.305" r="12.629" fill="#C2C2C2"/>
  <circle cx="193.422" cy="74.305" r="11.063" fill="#8C8C8C"/>
  <circle cx="193.421" cy="74.305" r="9.931" fill="#292929"/>
  <circle cx="193.422" cy="74.305" r="2.273" fill="#C2C2C2"/>
  <path id="rims2" fill="#C2C2C2" d="M205.151 71.661l-.688-2.114-9.138 2.715-.793-8.762h-2.224l-.794 8.766-9.133-2.424-.688 1.968 8.645 3.571-4.851 7.991 1.8 1.289 6.137-7.104 6.136 7.091 1.799-1.312-4.852-8.03 8.644-3.645zm-10.93 2.903l-.799.58-.798-.58.305-.938h.987l.305.938z"/>
  <circle cx="37.277" cy="74.305" r="18.035" fill="#363636"/>
  <circle cx="37.278" cy="74.305" r="14.018" fill="#2E2E2E"/>
  <circle cx="37.278" cy="74.305" r="12.629" fill="#C2C2C2"/>
  <circle cx="37.278" cy="74.305" r="11.063" fill="#8C8C8C"/>
  <circle cx="37.278" cy="74.305" r="9.931" fill="#292929"/>
  <circle cx="37.278" cy="74.305" r="2.273" fill="#C2C2C2"/>
  <path id="rims1" fill="#C2C2C2" d="M49.005 71.661l-.687-2.114-9.136 2.715-.793-8.762h-2.224l-.795 8.766-9.133-2.424-.688 1.968 8.645 3.573-4.851 7.989 1.799 1.289 6.138-7.104 6.134 7.09 1.799-1.312-4.85-8.03 8.642-3.644zm-10.928 2.903l-.798.58-.799-.58.304-.938h.988l.305.938z"/>
  <path fill="#474747" d="M10.901 23.963c2.141-2.98 11.447-10.922 14.003-13.287 1.009.349 1.881.836 1.334 1.384-1.096 1.097-12.659 17.529-13.634 17.935-.974.405-1.055.893-3.813.893H6.383c1.099-2.163 2.917-4.699 4.518-6.925z"/>
  <path fill="#474747" d="M176.77 29.048c.553.312 1.179.63 1.851.923-1.313.644-2.443 1.296-3.311 1.24-1.677-.107-6.816-3.625-10.819-5.951s-25.968-13.85-27.646-15.256c-1.239-1.039-.262-1.604 1.161-1.828.907.334 1.756.69 2.517 1.07 7.142 3.571 34.512 18.822 36.247 19.802z"/>
  <path fill="#474747" d="M160.108 29.264c1.299 1.083 1.19 3.462-2.705 3.462H45.214c-2.719 0-3.93-1.189-5.866-5.301-1.938-4.111-4.727-15.257-4.144-15.905.583-.65 18.219-4.22 61.823-4.22 4.545 0 24.021.433 35.273 4.977 11.253 4.544 26.509 15.905 27.808 16.987z"/>
  <g fill="#8A8A8A">
    <path d="M90.5 7.327c2.108-.017 4.282-.027 6.527-.027 1.733 0 5.641.063 10.434.394l12.193 25.032H102.87L90.5 7.327z"/>
    <path d="M138.336 32.726H128.31L116.556 8.594c3.77.498 7.604 1.187 11.065 2.133l10.715 21.999z"/>
    <path d="M43.29 9.93c2.531-.337 5.689-.691 9.525-1.026l11.603 23.822H54.393L43.29 9.93z"/>
  </g>
  <path fill="#292929" d="M93.068 32.726h-9.999V7.431c1.902-.037 3.866-.067 5.896-.089l4.103 25.384z"/>
  <path fill="#FFF" d="M213.768 39.542c2.87.556 11.47.975 15.148 3.787 3.679 2.814 9.305 9.522 8.006 10.712-1.298 1.191-12.226-.583-16.229-2.293-4.004-1.711-13.634-13.503-6.925-12.206z"/>
  <path fill="#FF7B4D" d="M220.693 51.748c-4.004-1.711-13.634-13.503-6.925-12.206 1.043.202 2.847.387 4.894.675 3.449 3.277 8.659 8.899 9.283 13.453-2.82-.514-5.615-1.223-7.252-1.922z"/>
  <path fill="#FF7B4D" d="M5.382 48.523V36.405h7.095c.683 0 1.236.554 1.236 1.237v11.391c0 .682-.553 1.235-1.236 1.235H5c.233-.654.382-1.249.382-1.745z"/>
</svg>