<svg xmlns="http://www.w3.org/2000/svg" width="1200" height="350" viewBox="0 0 1200 350">
  <path fill="#6B9B34" d="M-7.78 237.5h1216v113h-1216z"/>
  <g fill="#47A65C">
    <circle cx="894.17" cy="211.18" r="16.32"/>
    <circle cx="926.09" cy="211.18" r="23.31"/>
    <circle cx="962.05" cy="226.63" r="23.31"/>
    <circle cx="1007.63" cy="233.11" r="23.31"/>
    <circle cx="1189.28" cy="218.36" r="10.67"/>
    <circle cx="1050.96" cy="225.92" r="34.16"/>
    <circle cx="1097.28" cy="233.3" r="28.72"/>
    <circle cx="1136.18" cy="235.67" r="21.53"/>
    <circle cx="1167.32" cy="228.85" r="21.53"/>
  </g>
  <g fill="#52C26C">
    <circle cx="921.68" cy="226.42" r="24.93"/>
    <circle cx="961.3" cy="233.67" r="17.98"/>
    <circle cx="993.72" cy="243.12" r="17.5"/>
    <circle cx="1025.77" cy="239.62" r="27.19"/>
    <circle cx="1065.45" cy="246.62" r="17.72"/>
    <circle cx="1100.95" cy="239.62" r="25.25"/>
    <circle cx="1135.2" cy="242.15" r="13.25"/>
    <circle cx="1162.86" cy="236.53" r="17.91"/>
    <circle cx="1189.63" cy="235.87" r="10.35"/>
  </g>
  <g fill="#47A65C">
    <circle cx="459.58" cy="211.18" r="16.32"/>
    <circle cx="491.5" cy="211.18" r="23.32"/>
    <circle cx="527.45" cy="226.63" r="23.31"/>
    <circle cx="573.03" cy="233.11" r="23.31"/>
    <circle cx="616.37" cy="225.92" r="34.16"/>
    <circle cx="662.69" cy="233.3" r="28.72"/>
    <circle cx="701.58" cy="235.67" r="21.53"/>
    <circle cx="732.73" cy="228.85" r="21.53"/>
    <circle cx="780.13" cy="225.92" r="31.12"/>
    <circle cx="862.78" cy="225.92" r="31.12"/>
  </g>
  <g fill="#52C26C">
    <circle cx="487.08" cy="226.42" r="24.93"/>
    <circle cx="526.71" cy="233.67" r="17.98"/>
    <circle cx="559.12" cy="243.12" r="17.5"/>
    <circle cx="591.17" cy="239.62" r="27.19"/>
    <circle cx="630.85" cy="246.62" r="17.72"/>
    <circle cx="666.35" cy="239.62" r="25.25"/>
    <circle cx="700.6" cy="242.15" r="13.25"/>
    <circle cx="728.27" cy="236.53" r="17.91"/>
    <circle cx="763.61" cy="233.88" r="25.75"/>
    <circle cx="805.1" cy="247.37" r="25.75"/>
    <circle cx="850.1" cy="230.62" r="27.75"/>
    <circle cx="888.35" cy="242.62" r="21"/>
  </g>
  <g fill="#47A65C">
    <circle cx="19.03" cy="209.06" r="16.32"/>
    <circle cx="50.95" cy="209.06" r="23.32"/>
    <circle cx="86.9" cy="224.51" r="23.32"/>
    <circle cx="132.48" cy="230.99" r="23.32"/>
    <circle cx="175.82" cy="223.8" r="34.16"/>
    <circle cx="222.14" cy="231.18" r="28.72"/>
    <circle cx="261.03" cy="233.55" r="21.53"/>
    <circle cx="292.18" cy="226.73" r="21.53"/>
    <circle cx="339.58" cy="223.8" r="31.12"/>
    <circle cx="422.23" cy="223.8" r="31.12"/>
  </g>
  <g fill="#52C26C">
    <circle cx="15.62" cy="233.91" r="15.62"/>
    <circle cx="46.53" cy="224.3" r="24.93"/>
    <circle cx="86.16" cy="231.54" r="17.98"/>
    <circle cx="118.57" cy="241" r="17.5"/>
    <circle cx="150.63" cy="237.5" r="27.19"/>
    <circle cx="190.3" cy="244.5" r="17.72"/>
    <circle cx="225.8" cy="237.5" r="25.25"/>
    <circle cx="260.05" cy="240.03" r="13.25"/>
    <circle cx="287.72" cy="234.41" r="17.91"/>
    <circle cx="323.06" cy="231.75" r="25.75"/>
    <circle cx="364.55" cy="245.25" r="25.75"/>
    <circle cx="409.55" cy="228.49" r="27.75"/>
    <circle cx="447.8" cy="240.5" r="21"/>
  </g>
</svg>