<svg xmlns="http://www.w3.org/2000/svg" width="1200" height="350" viewBox="0 0 1200 350">
  <ellipse cx="616.47" cy="162.27" fill="#5C8899" rx="30.69" ry="56.84"/>
  <path fill="#7AB3C9" d="M643.61 229.56h-57.83c16.42-49.6 14.15-108 .78-171.65a1.41 1.41 0 0 1 2.22-1.43l54.02 39.95c.49.36.69.99.5 1.56-13.34 41.86-12.1 85.88.31 131.57z"/>
  <path fill="#6798AB" d="M611.61 113.03h27.55c.37-1.6.77-3.2 1.19-4.79H611.6v4.79zm-2.62 11.35h27.86c.28-1.6.57-3.2.9-4.79h-28.77v4.79zm-2.63 11.35h28.85c.18-1.6.39-3.2.6-4.79h-29.45v4.79zm2.63 10.31h25.27c.1-1.6.23-3.19.38-4.78h-25.65v4.78zm2.62 10.32h22.22c.03-1.6.08-3.2.14-4.78h-22.36v4.78zm2.63 10.32h19.64c-.04-1.6-.07-3.2-.08-4.79h-19.56v4.79zm2.62 10.32h17.55c-.12-1.6-.22-3.2-.3-4.79h-17.25V177zm2.64 5.53v4.78h15.86c-.18-1.6-.34-3.19-.5-4.78H619.5z"/>
  <path fill="#7AB3C9" d="M363.6 73.02h36.51v11.89H363.6z"/>
  <path fill="#6798AB" d="M363.99 86.4c-.68 0-1.23-.56-1.23-1.23V72.75a1.23 1.23 0 0 1 2.45 0v12.42c0 .67-.55 1.22-1.22 1.22zm35.76 0c-.67 0-1.22-.56-1.22-1.23V72.75a1.22 1.22 0 0 1 2.44 0v12.42c0 .67-.55 1.22-1.22 1.22z"/>
  <path fill="#7AB3C9" d="M410.38 231.7h-57.02V86.52a3.84 3.84 0 0 1 3.84-3.84h49.34a3.84 3.84 0 0 1 3.84 3.84V231.7z"/>
  <path fill="#6798AB" d="M412.65 101.81H351.1a1.96 1.96 0 0 1-1.97-1.96v-1.5c0-1.08.88-1.96 1.97-1.96h61.56c1.09 0 1.96.88 1.96 1.97v1.49c0 1.08-.88 1.96-1.96 1.96zm0 9.13H351.1a1.96 1.96 0 0 1-1.97-1.96v-1.49c0-1.08.88-1.96 1.97-1.96h61.56c1.09 0 1.96.88 1.96 1.96v1.5c0 1.08-.88 1.95-1.96 1.95zm0 9.14H351.1a1.96 1.96 0 0 1-1.97-1.97v-1.49c0-1.08.88-1.96 1.97-1.96h61.56c1.09 0 1.96.88 1.96 1.97v1.49c0 1.08-.88 1.96-1.96 1.96zm0 9.13H351.1a1.96 1.96 0 0 1-1.97-1.96v-1.5c0-1.07.88-1.95 1.97-1.95h61.56c1.09 0 1.96.88 1.96 1.96v1.49c0 1.08-.88 1.96-1.96 1.96zm0 9.14H351.1a1.96 1.96 0 0 1-1.97-1.97v-1.49c0-1.08.88-1.96 1.97-1.96h61.56c1.09 0 1.96.88 1.96 1.96v1.5c0 1.08-.88 1.96-1.96 1.96zm0 9.13H351.1a1.96 1.96 0 0 1-1.97-1.96v-1.5c0-1.08.88-1.96 1.97-1.96h61.56c1.09 0 1.96.88 1.96 1.97v1.49c0 1.08-.88 1.96-1.96 1.96zm0 9.14H351.1a1.96 1.96 0 0 1-1.97-1.97v-1.49c0-1.08.88-1.96 1.97-1.96h61.56c1.09 0 1.96.88 1.96 1.96v1.5c0 1.08-.88 1.96-1.96 1.96zm0 9.13H351.1a1.96 1.96 0 0 1-1.97-1.96v-1.5c0-1.08.88-1.96 1.97-1.96h61.56c1.09 0 1.96.88 1.96 1.97v1.49c0 1.08-.88 1.96-1.96 1.96zm0 9.13H351.1a1.96 1.96 0 0 1-1.97-1.96v-1.49c0-1.08.88-1.96 1.97-1.96h61.56c1.09 0 1.96.88 1.96 1.96v1.5c0 1.08-.88 1.95-1.96 1.95zm0 9.14H351.1a1.96 1.96 0 0 1-1.97-1.96v-1.5c0-1.08.88-1.96 1.97-1.96h61.56c1.09 0 1.96.88 1.96 1.97v1.49c0 1.08-.88 1.96-1.96 1.96zm0 9.13H351.1a1.96 1.96 0 0 1-1.97-1.96v-1.5c0-1.08.88-1.96 1.97-1.96h61.56c1.09 0 1.96.88 1.96 1.97v1.49c0 1.08-.88 1.96-1.96 1.96zm0 9.14H351.1a1.96 1.96 0 0 1-1.97-1.97v-1.49c0-1.08.88-1.96 1.97-1.96h61.56c1.09 0 1.96.88 1.96 1.96v1.5c0 1.08-.88 1.96-1.96 1.96zm0 9.13H351.1a1.96 1.96 0 0 1-1.97-1.96v-1.5c0-1.08.88-1.96 1.97-1.96h61.56c1.09 0 1.96.88 1.96 1.97v1.49c0 1.08-.88 1.96-1.96 1.96zm0 9.14H351.1a1.96 1.96 0 0 1-1.97-1.97v-1.49c0-1.08.88-1.96 1.97-1.96h61.56c1.09 0 1.96.88 1.96 1.96v1.5c0 1.08-.88 1.96-1.96 1.96z"/>
  <g fill="#6798AB">
    <circle cx="381.87" cy="79.41" r="1.83"/>
    <circle cx="392.85" cy="79.41" r="1.83"/>
    <circle cx="370.88" cy="79.41" r="1.83"/>
  </g>
  <path fill="#6798AB" d="M79.91 117.36H49.34V51.22l30.57-23.08z"/>
  <path fill="#5C8899" d="M52.51 53.34l27.4-20.68v-4.52L49.34 51.22v66.14h3.17z"/>
  <path fill="#7AB3C9" d="M87.61 232.38H35.28V54.7l52.33 39.23z"/>
  <path fill="#80BCD4" d="M39.81 63.42l47.8 35.84v-5.33L35.28 54.7v177.68h4.53z"/>
  <path fill="#6798AB" d="M55.18 104.09H87.6v4.13H55.18zm0 11.01H87.6v4.13H55.18zm0 11.01H87.6v4.13H55.18zm0 11.01H87.6v4.13H55.18zm0 11.01H87.6v4.13H55.18zm0 11.01H87.6v4.13H55.18zm0 11.01H87.6v4.13H55.18zm0 11H87.6v4.13H55.18zm0 11.01H87.6v4.13H55.18zm0 11.01H87.6v4.13H55.18z"/>
  <path fill="#7AB3C9" d="M134.3 232.38H95.4V69.64c0-.79.64-1.43 1.43-1.43h36.05c.78 0 1.42.64 1.42 1.43v162.74zm-5.58-164.17h-27.74v-3.78c0-1.1.9-2 2.01-2h23.73a2 2 0 0 1 2 2v3.78z"/>
  <path fill="#7AB3C9" d="M126.01 62.59H103.7v-3.78a2 2 0 0 1 2-2.01H124a2 2 0 0 1 2 2v3.79z"/>
  <path fill="#7AB3C9" d="M123.07 56.9h-16.43v-3.8c0-1.1.9-2 2-2h12.42a2 2 0 0 1 2 2v3.8z"/>
  <path fill="#7AB3C9" d="M111.68 51.37l3.62-37.03 3.62 37.03z"/>
  <path fill="#8ACBE3" d="M101.84 75.62h5.31v5.31h-5.31zm10.03 7.86h5.31v5.31h-5.31zm-10.03 13.95h5.31v5.31h-5.31zm10.03 0h5.31v5.31h-5.31zm0 22.02h5.31v5.31h-5.31zm-10.03 23.28h5.31v5.31h-5.31zm10.03 0h5.31v5.31h-5.31zm11.68 0h5.31v5.31h-5.31zm0-23.28h5.31v5.31h-5.31z"/>
  <path fill="#7AB3C9" d="M311.56 232.38h-47.18v-79.9a18.87 18.87 0 0 1 18.86-18.87h9.46a18.87 18.87 0 0 1 18.86 18.87v79.9z"/>
  <g fill="#8ACBE3">
    <circle cx="272.2" cy="159.26" r="2.83"/>
    <circle cx="282.71" cy="159.26" r="2.83"/>
    <circle cx="293.23" cy="159.26" r="2.83"/>
    <circle cx="303.74" cy="159.26" r="2.83"/>
  </g>
  <g fill="#8ACBE3">
    <circle cx="272.2" cy="167.78" r="2.83"/>
    <circle cx="282.71" cy="167.78" r="2.83"/>
    <circle cx="293.23" cy="167.78" r="2.83"/>
    <circle cx="303.74" cy="167.78" r="2.83"/>
  </g>
  <g fill="#8ACBE3">
    <circle cx="272.2" cy="176.3" r="2.83"/>
    <circle cx="282.71" cy="176.3" r="2.83"/>
    <circle cx="293.23" cy="176.3" r="2.83"/>
    <circle cx="303.74" cy="176.3" r="2.83"/>
  </g>
  <circle cx="287.97" cy="144.88" r="6.56" fill="#6798AB"/>
  <path fill="#7AB3C9" d="M174.04 86.14h62.42v146.25h-62.42zm21.93 0h-17.75v-4.45c0-.7.57-1.26 1.26-1.26h15.23c.7 0 1.26.56 1.26 1.26v4.45z"/>
  <path fill="#7AB3C9" d="M231.32 87.5h-17.75v-4.46c0-.7.56-1.26 1.26-1.26h15.23c.7 0 1.26.57 1.26 1.26v4.45z"/>
  <path fill="#8ACBE3" d="M180.63 100.09h5.31v5.31h-5.31zm10.98 0h5.31v5.31h-5.31zm10.98 0h5.31v5.31h-5.31zm10.97 0h5.31v5.31h-5.31z"/>
  <path fill="#6798AB" d="M224.54 100.09h5.31v5.31h-5.31z"/>
  <path fill="#8ACBE3" d="M180.63 108.47h5.31v5.31h-5.31zm10.98 0h5.31v5.31h-5.31z"/>
  <path fill="#6798AB" d="M202.59 108.47h5.31v5.31h-5.31z"/>
  <path fill="#8ACBE3" d="M213.56 108.47h5.31v5.31h-5.31zm10.98 0h5.31v5.31h-5.31z"/>
  <path fill="#6798AB" d="M180.63 116.85h5.31v5.31h-5.31z"/>
  <path fill="#8ACBE3" d="M191.61 116.85h5.31v5.31h-5.31zm10.98 0h5.31v5.31h-5.31zm10.97 0h5.31v5.31h-5.31z"/>
  <path fill="#6798AB" d="M224.54 116.85h5.31v5.31h-5.31zm-43.91 8.38h5.31v5.31h-5.31z"/>
  <path fill="#8ACBE3" d="M191.61 125.23h5.31v5.31h-5.31zm10.98 0h5.31v5.31h-5.31zm10.97 0h5.31v5.31h-5.31zm10.98 0h5.31v5.31h-5.31zm-43.91 8.38h5.31v5.31h-5.31zm10.98 0h5.31v5.31h-5.31z"/>
  <path fill="#6798AB" d="M202.59 133.61h5.31v5.31h-5.31z"/>
  <path fill="#8ACBE3" d="M213.56 133.61h5.31v5.31h-5.31zm10.98 0h5.31v5.31h-5.31z"/>
  <path fill="#7AB3C9" d="M490.76 232.2h-26.32V130.52c0-6.94 5.63-12.57 12.57-12.57h1.18c6.94 0 12.57 5.63 12.57 12.57V232.2z"/>
  <path fill="#6798AB" d="M464.44 144.27l-12.69 87.93h12.69z"/>
  <path fill="#6291A3" d="M467.23 134.16h2.27v98.05h-2.27zm17.96 0h2.27v98.05h-2.27z"/>
  <path fill="#6291A3" d="M467.23 134.16h20.23v8.15h-20.23zm12.07 10.11h7.43v2.06h-7.43zm-2.63 6.35h10.06v2.06h-10.06zm-5.52 6.34h15.58v2.06h-15.58zm6.86 6.35h8.72v2.06h-8.72zm4.36 6.35h4.36v2.06h-4.36zm-4.56 6.35h8.93v2.06h-8.93zm-5.01 6.34h13.93v2.06H472.8zm8.1 6.35h5.83v2.06h-5.83z"/>
  <path fill="#7AB3C9" d="M526.32 226.01h-35.56V74.07l17.78-4.85 17.78 4.85z"/>
  <path fill="#7AB3C9" d="M513.92 71.73L508.54 6l-5.39 65.73z"/>
  <circle cx="508.54" cy="40.39" r="5.66" fill="#7AB3C9"/>
  <path fill="#8ACBE3" d="M494.32 81.34h28.42v3.5h-28.42z"/>
  <path fill="#6798AB" d="M494.32 88.17h28.42v3.5h-28.42z"/>
  <path fill="#8ACBE3" d="M494.32 94.99h28.42v3.5h-28.42z"/>
  <path fill="#6798AB" d="M494.32 101.81h28.42v3.5h-28.42zm0 6.83h28.42v3.5h-28.42z"/>
  <path fill="#8ACBE3" d="M494.32 115.47h28.42v3.5h-28.42zm0 6.82h28.42v3.5h-28.42zm0 6.82h28.42v3.5h-28.42z"/>
  <path fill="#6798AB" d="M494.32 135.94h28.42v3.5h-28.42z"/>
  <path fill="#8ACBE3" d="M494.32 142.76h28.42v3.5h-28.42zm0 6.83h28.42v3.5h-28.42z"/>
  <path fill="#7AB3C9" d="M1007.92 73.02h36.51v11.89h-36.51z"/>
  <path fill="#6798AB" d="M1008.3 86.4c-.67 0-1.21-.56-1.21-1.23V72.75a1.22 1.22 0 0 1 2.44 0v12.42c0 .67-.55 1.22-1.22 1.22zm35.77 0c-.67 0-1.22-.56-1.22-1.23V72.75a1.22 1.22 0 0 1 2.44 0v12.42c0 .67-.54 1.22-1.22 1.22z"/>
  <path fill="#7AB3C9" d="M1054.7 231.7h-57.02V86.52a3.84 3.84 0 0 1 3.84-3.84h49.34a3.84 3.84 0 0 1 3.84 3.84V231.7z"/>
  <path fill="#6798AB" d="M1056.97 101.81h-61.56a1.96 1.96 0 0 1-1.97-1.96v-1.5c0-1.08.88-1.96 1.97-1.96h61.56c1.09 0 1.97.88 1.97 1.97v1.49c0 1.08-.88 1.96-1.97 1.96zm0 9.13h-61.56a1.96 1.96 0 0 1-1.97-1.96v-1.49c0-1.08.88-1.96 1.97-1.96h61.56c1.09 0 1.97.88 1.97 1.96v1.5c0 1.08-.88 1.95-1.97 1.95zm0 9.14h-61.56a1.96 1.96 0 0 1-1.97-1.97v-1.49c0-1.08.88-1.96 1.97-1.96h61.56c1.09 0 1.97.88 1.97 1.97v1.49c0 1.08-.88 1.96-1.97 1.96zm0 9.13h-61.56a1.96 1.96 0 0 1-1.97-1.96v-1.5c0-1.07.88-1.95 1.97-1.95h61.56c1.09 0 1.97.88 1.97 1.96v1.49c0 1.08-.88 1.96-1.97 1.96zm0 9.14h-61.56a1.96 1.96 0 0 1-1.97-1.97v-1.49c0-1.08.88-1.96 1.97-1.96h61.56c1.09 0 1.97.88 1.97 1.96v1.5c0 1.08-.88 1.96-1.97 1.96zm0 9.13h-61.56a1.96 1.96 0 0 1-1.97-1.96v-1.5c0-1.08.88-1.96 1.97-1.96h61.56c1.09 0 1.97.88 1.97 1.97v1.49c0 1.08-.88 1.96-1.97 1.96zm0 9.14h-61.56a1.96 1.96 0 0 1-1.97-1.97v-1.49c0-1.08.88-1.96 1.97-1.96h61.56c1.09 0 1.97.88 1.97 1.96v1.5c0 1.08-.88 1.96-1.97 1.96zm0 9.13h-61.56a1.96 1.96 0 0 1-1.97-1.96v-1.5c0-1.08.88-1.96 1.97-1.96h61.56c1.09 0 1.97.88 1.97 1.97v1.49c0 1.08-.88 1.96-1.97 1.96zm0 9.13h-61.56a1.96 1.96 0 0 1-1.97-1.96v-1.49c0-1.08.88-1.96 1.97-1.96h61.56c1.09 0 1.97.88 1.97 1.96v1.5c0 1.08-.88 1.95-1.97 1.95zm0 9.14h-61.56a1.96 1.96 0 0 1-1.97-1.96v-1.5c0-1.08.88-1.96 1.97-1.96h61.56c1.09 0 1.97.88 1.97 1.97v1.49c0 1.08-.88 1.96-1.97 1.96zm0 9.13h-61.56a1.96 1.96 0 0 1-1.97-1.96v-1.5c0-1.08.88-1.96 1.97-1.96h61.56c1.09 0 1.97.88 1.97 1.97v1.49c0 1.08-.88 1.96-1.97 1.96zm0 9.14h-61.56a1.96 1.96 0 0 1-1.97-1.97v-1.49c0-1.08.88-1.96 1.97-1.96h61.56c1.09 0 1.97.88 1.97 1.96v1.5c0 1.08-.88 1.96-1.97 1.96zm0 9.13h-61.56a1.96 1.96 0 0 1-1.97-1.96v-1.5c0-1.08.88-1.96 1.97-1.96h61.56c1.09 0 1.97.88 1.97 1.97v1.49c0 1.08-.88 1.96-1.97 1.96zm0 9.14h-61.56a1.96 1.96 0 0 1-1.97-1.97v-1.49c0-1.08.88-1.96 1.97-1.96h61.56c1.09 0 1.97.88 1.97 1.96v1.5c0 1.08-.88 1.96-1.97 1.96z"/>
  <g fill="#6798AB">
    <circle cx="1026.19" cy="79.41" r="1.83"/>
    <circle cx="1037.17" cy="79.41" r="1.83"/>
    <circle cx="1015.21" cy="79.41" r="1.83"/>
  </g>
  <path fill="#6798AB" d="M724.23 117.36h-30.57V51.22l30.57-23.08z"/>
  <path fill="#5C8899" d="M696.83 53.34l27.4-20.68v-4.52l-30.57 23.08v66.14h3.17z"/>
  <path fill="#7AB3C9" d="M731.93 232.38H679.6V54.7l52.33 39.23z"/>
  <path fill="#80BCD4" d="M684.13 63.42l47.8 35.84v-5.33L679.6 54.7v177.68h4.53z"/>
  <path fill="#6798AB" d="M699.51 104.09h32.42v4.13h-32.42zm0 11.01h32.42v4.13h-32.42zm0 11.01h32.42v4.13h-32.42zm0 11.01h32.42v4.13h-32.42zm0 11.01h32.42v4.13h-32.42zm0 11.01h32.42v4.13h-32.42zm0 11.01h32.42v4.13h-32.42zm0 11h32.42v4.13h-32.42zm0 11.01h32.42v4.13h-32.42zm0 11.01h32.42v4.13h-32.42z"/>
  <path fill="#7AB3C9" d="M778.62 232.38h-38.9V69.64c0-.79.65-1.43 1.43-1.43h36.05c.79 0 1.42.64 1.42 1.43v162.74zm-5.57-164.17H745.3v-3.78c0-1.1.9-2 2-2h23.73a2 2 0 0 1 2 2v3.78z"/>
  <path fill="#7AB3C9" d="M770.33 62.59h-22.31v-3.78a2 2 0 0 1 2-2.01h18.3a2 2 0 0 1 2.01 2v3.79z"/>
  <path fill="#7AB3C9" d="M767.4 56.9h-16.44v-3.8c0-1.1.9-2 2-2h12.43a2 2 0 0 1 2 2v3.8z"/>
  <path fill="#7AB3C9" d="M756 51.37l3.62-37.03 3.62 37.03z"/>
  <path fill="#8ACBE3" d="M746.17 75.62h5.31v5.31h-5.31zm10.02 7.86h5.31v5.31h-5.31zm-10.02 13.95h5.31v5.31h-5.31zm10.02 0h5.31v5.31h-5.31zm0 22.02h5.31v5.31h-5.31zm-10.02 23.28h5.31v5.31h-5.31zm10.02 0h5.31v5.31h-5.31zm11.68 0h5.31v5.31h-5.31zm0-23.28h5.31v5.31h-5.31z"/>
  <path fill="#7AB3C9" d="M955.89 232.38h-47.2v-79.9a18.87 18.87 0 0 1 18.88-18.87h9.45a18.87 18.87 0 0 1 18.87 18.87v79.9z"/>
  <g fill="#8ACBE3">
    <circle cx="916.52" cy="159.26" r="2.83"/>
    <circle cx="927.04" cy="159.26" r="2.83"/>
    <circle cx="937.55" cy="159.26" r="2.83"/>
    <circle cx="948.06" cy="159.26" r="2.83"/>
  </g>
  <g fill="#8ACBE3">
    <circle cx="916.52" cy="167.78" r="2.83"/>
    <circle cx="927.04" cy="167.78" r="2.83"/>
    <circle cx="937.55" cy="167.78" r="2.83"/>
    <circle cx="948.06" cy="167.78" r="2.83"/>
  </g>
  <g fill="#8ACBE3">
    <circle cx="916.52" cy="176.3" r="2.83"/>
    <circle cx="927.04" cy="176.3" r="2.83"/>
    <circle cx="937.55" cy="176.3" r="2.83"/>
    <circle cx="948.06" cy="176.3" r="2.83"/>
  </g>
  <circle cx="932.29" cy="144.88" r="6.56" fill="#6798AB"/>
  <path fill="#7AB3C9" d="M818.36 86.14h62.42v146.25h-62.42zm21.94 0h-17.76v-4.45c0-.7.57-1.26 1.27-1.26h15.22c.7 0 1.27.56 1.27 1.26v4.45z"/>
  <path fill="#7AB3C9" d="M875.64 87.5h-17.75v-4.46c0-.7.56-1.26 1.26-1.26h15.23c.7 0 1.26.57 1.26 1.26v4.45z"/>
  <path fill="#8ACBE3" d="M824.96 100.09h5.31v5.31h-5.31zm10.97 0h5.31v5.31h-5.31zm10.98 0h5.31v5.31h-5.31zm10.98 0h5.31v5.31h-5.31z"/>
  <path fill="#6798AB" d="M868.86 100.09h5.31v5.31h-5.31z"/>
  <path fill="#8ACBE3" d="M824.96 108.47h5.31v5.31h-5.31zm10.97 0h5.31v5.31h-5.31z"/>
  <path fill="#6798AB" d="M846.91 108.47h5.31v5.31h-5.31z"/>
  <path fill="#8ACBE3" d="M857.89 108.47h5.31v5.31h-5.31zm10.97 0h5.31v5.31h-5.31z"/>
  <path fill="#6798AB" d="M824.96 116.85h5.31v5.31h-5.31z"/>
  <path fill="#8ACBE3" d="M835.93 116.85h5.31v5.31h-5.31zm10.98 0h5.31v5.31h-5.31zm10.98 0h5.31v5.31h-5.31z"/>
  <path fill="#6798AB" d="M868.86 116.85h5.31v5.31h-5.31zm-43.9 8.38h5.31v5.31h-5.31z"/>
  <path fill="#8ACBE3" d="M835.93 125.23h5.31v5.31h-5.31zm10.98 0h5.31v5.31h-5.31zm10.98 0h5.31v5.31h-5.31zm10.97 0h5.31v5.31h-5.31zm-43.9 8.38h5.31v5.31h-5.31zm10.97 0h5.31v5.31h-5.31z"/>
  <path fill="#6798AB" d="M846.91 133.61h5.31v5.31h-5.31z"/>
  <path fill="#8ACBE3" d="M857.89 133.61h5.31v5.31h-5.31zm10.97 0h5.31v5.31h-5.31z"/>
  <path fill="#7AB3C9" d="M1135.08 232.2h-26.31V130.52c0-6.94 5.62-12.57 12.56-12.57h1.19c6.94 0 12.56 5.63 12.56 12.57V232.2z"/>
  <path fill="#6798AB" d="M1108.77 144.27l-12.7 87.93h12.7z"/>
  <path fill="#6291A3" d="M1111.55 134.16h2.27v98.05h-2.27zm17.96 0h2.27v98.05h-2.27z"/>
  <path fill="#6291A3" d="M1111.55 134.16h20.23v8.15h-20.23zm12.08 10.11h7.43v2.06h-7.43zm-2.64 6.35h10.06v2.06h-10.06zm-5.52 6.34h15.58v2.06h-15.58zm6.87 6.35h8.72v2.06h-8.72zm4.36 6.35h4.36v2.06h-4.36zm-4.57 6.35h8.93v2.06h-8.93zm-5.01 6.34h13.93v2.06h-13.93zm8.11 6.35h5.83v2.06h-5.83z"/>
  <path fill="#7AB3C9" d="M1170.64 226.01h-35.56V74.07l17.78-4.85 17.78 4.85z"/>
  <path fill="#7AB3C9" d="M1158.25 71.73L1152.86 6l-5.39 65.73z"/>
  <circle cx="1152.86" cy="40.39" r="5.66" fill="#7AB3C9"/>
  <path fill="#8ACBE3" d="M1138.65 81.34h28.42v3.5h-28.42z"/>
  <path fill="#6798AB" d="M1138.65 88.17h28.42v3.5h-28.42z"/>
  <path fill="#8ACBE3" d="M1138.65 94.99h28.42v3.5h-28.42z"/>
  <path fill="#6798AB" d="M1138.65 101.81h28.42v3.5h-28.42zm0 6.83h28.42v3.5h-28.42z"/>
  <path fill="#8ACBE3" d="M1138.65 115.47h28.42v3.5h-28.42zm0 6.82h28.42v3.5h-28.42zm0 6.82h28.42v3.5h-28.42z"/>
  <path fill="#6798AB" d="M1138.65 135.94h28.42v3.5h-28.42z"/>
  <path fill="#8ACBE3" d="M1138.65 142.76h28.42v3.5h-28.42zm0 6.83h28.42v3.5h-28.42z"/>
</svg>