<svg xmlns="http://www.w3.org/2000/svg" width="1200" height="350" viewBox="0 0 1200 350">
  <path fill="#3C424A" d="M-2.23 216.46h1210.45v100.49H-2.23z"/>
  <path fill="#5F6A75" d="M5 269.26h85.54v10.54H5zm110.74 0h85.54v10.54h-85.54zm110.75 0h85.54v10.54h-85.54zm110.74 0h85.54v10.54h-85.54zm110.75 0h85.54v10.54h-85.54zm110.74 0h85.54v10.54h-85.54zm110.74 0H755v10.54h-85.54zm103.54 0h85.54v10.54H773zm110.74 0h85.54v10.54h-85.54zm110.75 0h85.54v10.54h-85.54zm110.74 0h85.54v10.54h-85.54z"/>
  <path fill="#FFDB83" d="M-3.25 215.49h1206.62v11.69H-3.25zm-.12 99.32h1206.62v11.7H-3.37z"/>
</svg>